#!OML:ASF H:\Dans Jumps\Project 1\Capture day 1\Session 1\subject.ASF
:FULLY-SPECIFIED
:DEGREES
223
root 0.0545984 15.8355 -14.3508 28.9246 1.46987 -2.29146
lowerback 18.7592 0.472199 -0.981914
upperback 2.25327 0.667733 2.815
thorax -8.12555 0.398287 3.43921
lowerneck -20.7868 0.287779 -1.45897
upperneck 10.2523 0.901641 -0.700385
head 6.48078 0.310591 0.108144
rclavicle -2.38542e-015 1.03368e-014
rhumerus -24.6437 -24.1649 -73.808
rradius 23.3848
rwrist 32.7215
rhand -19.3939 -26.2468
rfingers 7.12502
rthumb 6.92496 -56.1135
lclavicle -2.38542e-015 1.03368e-014
lhumerus -21.8239 31.6555 74.7561
lradius 10.1229
lwrist -19.1885
lhand -25.6678 -5.15552
lfingers 7.12502
lthumb 0.866622 24.8225
rfemur -61.0792 -0.384988 23.3993
rtibia 61.8055
rfoot -32.4554 -14.5963
rtoes 0.49282
lfemur -62.081 4.83338 -20.5676
ltibia 61.8245
lfoot -27.365 21.406
ltoes -9.02915
224
root 0.049497 15.7937 -14.2903 29.1565 1.45016 -2.32643
lowerback 18.9292 0.532861 -1.03466
upperback 2.05786 0.742554 2.83215
thorax -8.43829 0.442248 3.47301
lowerneck -21.0075 0.2819 -1.44763
upperneck 10.1999 0.893559 -0.695836
head 6.49895 0.307439 0.107192
rclavicle 9.34288e-015 -1.5704e-014
rhumerus -24.0959 -24.1576 -74.0382
rradius 23.4012
rwrist 32.6453
rhand -19.6016 -26.2687
rfingers 7.12502
rthumb 6.72441 -56.1419
lclavicle 9.34288e-015 -1.5704e-014
lhumerus -21.1409 32.1503 75.063
lradius 9.72144
lwrist -19.5721
lhand -25.9765 -5.00354
lfingers 7.12502
lthumb 0.568415 24.9754
rfemur -61.3898 -0.248968 23.4146
rtibia 62.3684
rfoot -32.5872 -14.7157
rtoes 0.554381
lfemur -62.4138 4.90712 -20.5367
ltibia 62.4205
lfoot -27.4384 21.4465
ltoes -9.07112
225
root 0.0444574 15.7504 -14.2258 29.3636 1.42533 -2.3765
lowerback 19.0903 0.59781 -1.08135
upperback 1.86084 0.824602 2.85456
thorax -8.74957 0.489728 3.50679
lowerneck -21.2275 0.280959 -1.42932
upperneck 10.1546 0.892448 -0.706179
head 6.51934 0.306514 0.101075
rclavicle -2.38542e-015 7.95139e-016
rhumerus -23.5093 -24.191 -74.2612
rradius 23.4033
rwrist 32.6183
rhand -19.8261 -26.231
rfingers 7.12502
rthumb 6.50774 -56.111
lclavicle -2.38542e-015 7.95139e-016
lhumerus -20.4358 32.6475 75.3951
lradius 9.35771
lwrist -20.0113
lhand -26.2995 -4.85583
lfingers 7.12502
lthumb 0.256487 25.1238
rfemur -61.6597 -0.104701 23.4428
rtibia 62.9369
rfoot -32.6981 -14.8537
rtoes 0.595173
lfemur -62.7105 5.00509 -20.4946
ltibia 63.0327
lfoot -27.5034 21.4869
ltoes -9.1069
226
root 0.0395343 15.7057 -14.1574 29.5494 1.38795 -2.44153
lowerback 19.2324 0.667916 -1.1262
upperback 1.66431 0.913995 2.88037
thorax -9.05159 0.540745 3.54077
lowerneck -21.4591 0.285431 -1.39735
upperneck 10.1291 0.898116 -0.736115
head 6.5481 0.307393 0.0872172
rclavicle -2.38542e-015 2.04748e-014
rhumerus -22.8747 -24.2475 -74.4913
rradius 23.4056
rwrist 32.5954
rhand -19.9941 -26.199
rfingers 7.12502
rthumb 6.34555 -56.084
lclavicle -2.38542e-015 2.04748e-014
lhumerus -19.7059 33.1267 75.7562
lradius 9.04955
lwrist -20.4393
lhand -26.6012 -4.67321
lfingers 7.12502
lthumb -0.0349185 25.3065
rfemur -61.8918 0.0507205 23.4824
rtibia 63.5072
rfoot -32.781 -15.029
rtoes 0.639744
lfemur -62.9737 5.13438 -20.4469
ltibia 63.6567
lfoot -27.5536 21.5175
ltoes -9.08734
227
root 0.0348066 15.6601 -14.0844 29.7108 1.34879 -2.52153
lowerback 19.3528 0.737532 -1.16397
upperback 1.46919 1.00479 2.91215
thorax -9.3413 0.592263 3.5763
lowerneck -21.709 0.297244 -1.35464
upperneck 10.1353 0.913424 -0.780735
head 6.59016 0.311624 0.0680414
rclavicle -6.36111e-015 6.16232e-015
rhumerus -22.1927 -24.2966 -74.736
rradius 23.4243
rwrist 32.5363
rhand -20.1024 -26.1846
rfingers 7.12502
rthumb 6.241 -56.0726
lclavicle -6.36111e-015 6.16232e-015
lhumerus -18.9725 33.6177 76.1247
lradius 8.80815
lwrist -20.8212
lhand -26.9173 -4.52228
lfingers 7.12502
lthumb -0.340234 25.4572
rfemur -62.0758 0.206177 23.5406
rtibia 64.0739
rfoot -32.8488 -15.2512
rtoes 0.705711
lfemur -63.1947 5.28669 -20.3897
ltibia 64.2857
lfoot -27.5898 21.5338
ltoes -8.98891
228
root 0.0303201 15.6144 -14.0066 29.8439 1.30533 -2.61359
lowerback 19.4514 0.804963 -1.19773
upperback 1.27737 1.09401 2.94813
thorax -9.61636 0.642882 3.61408
lowerneck -21.9739 0.313297 -1.312
upperneck 10.1711 0.934899 -0.825212
head 6.64422 0.318459 0.0497084
rclavicle 1.78906e-015 -3.37934e-015
rhumerus -21.466 -24.3516 -74.9925
rradius 23.4439
rwrist 32.4889
rhand -20.2057 -26.1376
rfingers 7.12502
rthumb 6.14124 -56.0286
lclavicle 1.78906e-015 -3.37934e-015
lhumerus -18.2344 34.1153 76.5007
lradius 8.62546
lwrist -21.1231
lhand -27.2836 -4.47393
lfingers 7.12502
lthumb -0.694017 25.5047
rfemur -62.2019 0.360257 23.6157
rtibia 64.6319
rfoot -32.9089 -15.5261
rtoes 0.809555
lfemur -63.362 5.46032 -20.3247
ltibia 64.9137
lfoot -27.6287 21.5369
ltoes -8.81411
229
root 0.0264164 15.5691 -13.9239 29.9523 1.26645 -2.71376
lowerback 19.525 0.86345 -1.22554
upperback 1.08593 1.17349 2.98951
thorax -9.8774 0.688739 3.65671
lowerneck -22.2554 0.34091 -1.28752
upperneck 10.2422 0.973799 -0.84389
head 6.71218 0.334925 0.0448819
rclavicle 1.19271e-014 -1.59028e-015
rhumerus -20.7065 -24.4067 -75.2615
rradius 23.4804
rwrist 32.4795
rhand -20.3209 -26.0583
rfingers 7.12502
rthumb 6.03001 -55.9525
lclavicle 1.19271e-014 -1.59028e-015
lhumerus -17.506 34.6267 76.875
lradius 8.51244
lwrist -21.3135
lhand -27.698 -4.58802
lfingers 7.12502
lthumb -1.09424 25.3889
rfemur -62.2687 0.497359 23.7105
rtibia 65.1754
rfoot -32.9732 -15.8522
rtoes 0.907476
lfemur -63.4754 5.64545 -20.2541
ltibia 65.5345
lfoot -27.6824 21.533
ltoes -8.54882
230
root 0.022668 15.5241 -13.8363 30.0427 1.23485 -2.82146
lowerback 19.565 0.914028 -1.24524
upperback 0.893229 1.24501 3.03506
thorax -10.1215 0.730543 3.70121
lowerneck -22.534 0.363453 -1.2812
upperneck 10.3284 1.00783 -0.840467
head 6.78444 0.350202 0.0497119
rclavicle 6.55989e-015 -1.59028e-014
rhumerus -19.9129 -24.438 -75.5509
rradius 23.5272
rwrist 32.4586
rhand -20.4515 -25.9776
rfingers 7.12502
rthumb 5.9039 -55.8754
lclavicle 6.55989e-015 -1.59028e-014
lhumerus -16.7892 35.1433 77.2469
lradius 8.46599
lwrist -21.3996
lhand -28.0938 -4.83897
lfingers 7.12502
lthumb -1.4765 25.1357
rfemur -62.2787 0.624512 23.8224
rtibia 65.6991
rfoot -33.0663 -16.1971
rtoes 1.09534
lfemur -63.5402 5.83823 -20.1734
ltibia 66.1432
lfoot -27.7644 21.536
ltoes -8.28459
231
root 0.0192934 15.4805 -13.7433 30.1119 1.21163 -2.93863
lowerback 19.5712 0.957103 -1.25046
upperback 0.70019 1.31042 3.08352
thorax -10.3472 0.76876 3.74212
lowerneck -22.7949 0.377782 -1.29975
upperneck 10.4196 1.03275 -0.804175
head 6.85522 0.363198 0.0682808
rclavicle 1.59028e-015 -7.15625e-015
rhumerus -19.0948 -24.4565 -75.8561
rradius 23.5849
rwrist 32.4605
rhand -20.6259 -25.8839
rfingers 7.12502
rthumb 5.73556 -55.7862
lclavicle 1.59028e-015 -7.15625e-015
lhumerus -16.084 35.6598 77.6177
lradius 8.48978
lwrist -21.4122
lhand -28.404 -5.1893
lfingers 7.12502
lthumb -1.77607 24.7831
rfemur -62.219 0.74 23.9537
rtibia 66.1903
rfoot -33.1856 -16.5654
rtoes 1.29947
lfemur -63.5421 6.03869 -20.0801
ltibia 66.7295
lfoot -27.8985 21.5697
ltoes -8.13207
232
root 0.0161365 15.439 -13.6448 30.1652 1.19197 -3.0574
lowerback 19.5376 0.996193 -1.24815
upperback 0.506513 1.3724 3.13122
thorax -10.5515 0.804809 3.77867
lowerneck -23.0376 0.383965 -1.32357
upperneck 10.514 1.04643 -0.757865
head 6.92415 0.37159 0.0896814
rclavicle 3.57812e-015 1.19271e-014
rhumerus -18.2605 -24.4376 -76.1792
rradius 23.6651
rwrist 32.4501
rhand -20.8093 -25.82
rfingers 7.12502
rthumb 5.5585 -55.7271
lclavicle 3.57812e-015 1.19271e-014
lhumerus -15.3931 36.1675 77.9891
lradius 8.59961
lwrist -21.3698
lhand -28.5271 -5.5271
lfingers 7.12502
lthumb -1.89497 24.4442
rfemur -62.0906 0.848129 24.0914
rtibia 66.6374
rfoot -33.3283 -16.9481
rtoes 1.48554
lfemur -63.4787 6.24497 -19.9827
ltibia 67.2799
lfoot -28.0855 21.6526
ltoes -8.19948
233
root 0.013119 15.4009 -13.5405 30.1965 1.17135 -3.17887
lowerback 19.4715 1.0357 -1.24102
upperback 0.31354 1.4362 3.17892
thorax -10.7373 0.841294 3.81183
lowerneck -23.259 0.378379 -1.35361
upperneck 10.6111 1.04516 -0.707216
head 6.99062 0.373036 0.111697
rclavicle -1.59028e-015 7.95139e-015
rhumerus -17.4244 -24.3838 -76.5085
rradius 23.7667
rwrist 32.4457
rhand -21.0085 -25.7746
rfingers 7.12502
rthumb 5.36615 -55.6867
lclavicle -1.59028e-015 7.95139e-015
lhumerus -14.7182 36.6613 78.3651
lradius 8.79646
lwrist -21.3146
lhand -28.4409 -5.81575
lfingers 7.12502
lthumb -1.81172 24.1563
rfemur -61.8767 0.955464 24.2323
rtibia 67.0231
rfoot -33.493 -17.3426
rtoes 1.59546
lfemur -63.3298 6.46043 -19.8793
ltibia 67.7768
lfoot -28.3294 21.7986
ltoes -8.59602
234
root 0.0103148 15.3672 -13.4298 30.2067 1.14347 -3.29452
lowerback 19.3702 1.07824 -1.23681
upperback 0.122578 1.50302 3.22259
thorax -10.9016 0.878985 3.84126
lowerneck -23.4621 0.369309 -1.36356
upperneck 10.7123 1.03667 -0.680824
head 7.0559 0.369574 0.121603
rclavicle -5.1684e-015 -1.98785e-014
rhumerus -16.5949 -24.3055 -76.8388
rradius 23.8881
rwrist 32.4549
rhand -21.2076 -25.7447
rfingers 7.12502
rthumb 5.17393 -55.6616
lclavicle -5.1684e-015 -1.98785e-014
lhumerus -14.0595 37.136 78.7451
lradius 9.07716
lwrist -21.3038
lhand -28.1554 -5.96612
lfingers 7.12502
lthumb -1.53597 24.0081
rfemur -61.568 1.06044 24.3633
rtibia 67.3324
rfoot -33.6853 -17.7342
rtoes 1.5795
lfemur -63.082 6.68189 -19.7787
ltibia 68.2002
lfoot -28.6164 22.009
ltoes -9.34667
235
root 0.0078025 15.3393 -13.3123 30.1945 1.11502 -3.4022
lowerback 19.2344 1.12106 -1.23486
upperback -0.0662377 1.56971 3.26581
thorax -11.0444 0.916503 3.87146
lowerneck -23.6533 0.359674 -1.36662
upperneck 10.8299 1.02779 -0.669717
head 7.12499 0.364613 0.125313
rclavicle -4.96962e-015 1.23246e-014
rhumerus -15.792 -24.177 -77.1625
rradius 24.0532
rwrist 32.4383
rhand -21.3888 -25.7424
rfingers 7.12502
rthumb 4.99898 -55.6635
lclavicle -4.96962e-015 1.23246e-014
lhumerus -13.4239 37.5953 79.128
lradius 9.429
lwrist -21.3541
lhand -27.7495 -6.05033
lfingers 7.12502
lthumb -1.14397 23.9263
rfemur -61.1529 1.15528 24.4852
rtibia 67.5474
rfoot -33.9059 -18.1263
rtoes 1.36624
lfemur -62.7229 6.90067 -19.6772
ltibia 68.5293
lfoot -28.9256 22.2682
ltoes -10.3782
